<svg width="702" height="718" xmlns="http://www.w3.org/2000/svg" xmlns:xlink="http://www.w3.org/1999/xlink" xml:space="preserve" overflow="hidden"><defs><clipPath id="clip0"><rect x="1849" y="737" width="702" height="718"/></clipPath></defs><g clip-path="url(#clip0)" transform="translate(-1849 -737)"><path d="M2200 749.269C2109.75 750.76 2028.18 787.919 1968.8 847.26 1908.19 907.837 1870.7 991.529 1870.7 1083.97 1870.7 1176.41 1908.19 1260.1 1968.8 1320.68 2028.18 1380.02 2109.75 1417.18 2200 1418.67 2290.25 1417.18 2371.82 1380.02 2431.19 1320.68 2491.8 1260.1 2529.3 1176.41 2529.3 1083.97 2529.3 991.529 2491.81 907.837 2431.19 847.26 2371.82 787.919 2290.25 750.76 2200 749.269M2200 1455C1760.38 1449.58 1723.61 817.739 2147.04 742.434 2184.56 735.763 2207.62 735.13 2245.13 741.114 2676.83 809.976 2642.32 1449.54 2200 1455Z" fill="#283519" fill-rule="evenodd"/><path d="M2094.81 948.557C2092.38 900.87 2067.24 859.712 2030.38 835 2058.32 878.112 1905.76 990.586 2034.19 1063.68 2021.51 1024.99 2021.79 998.309 2021.79 998.309 2023.72 982.882 2030.46 961.96 2034.53 950.039 2039.33 935.968 2043.64 923.382 2042.06 909.908 2051.02 939.632 2009.54 987.282 2046.91 1064 2078.29 1035.68 2097.12 994.021 2094.81 948.557" fill="#A4BA3B" fill-rule="evenodd"/><path d="M2276.92 826.306C2300.54 784.497 2341.69 758.731 2386 753 2341.45 779.271 2428.31 948.743 2279.77 957 2319.72 926.831 2321 896.791 2321 896.791 2326.19 882.049 2328.86 867.171 2330.55 854.627 2332.54 839.815 2334.33 826.568 2341.81 815.155 2320.38 837.88 2336.32 899.313 2268.16 951.595 2252.64 912.07 2254.4 866.169 2276.92 826.306" fill="#A4BA3B" fill-rule="evenodd"/><path d="M2190 1446.17C2232.46 1361.63 2210.22 1276.02 2186.69 1185.46 2174.47 1138.41 2120.23 931.065 2233.51 823 2090.76 1066.73 2342.89 1250.15 2241.03 1453L2190 1446.17Z" fill="#283519" fill-rule="evenodd"/><path d="M2168 1020.86C2168.39 1020.7 2305.35 966.588 2321 897 2320.48 964.695 2202.59 1030.4 2176.09 1041L2168 1020.86Z" fill="#283519" fill-rule="evenodd"/><path d="M2210.69 1228C2129.34 1203.3 2010.62 1113.52 2021.73 999 2054.28 1158.89 2216.53 1207.06 2217 1207.2L2210.69 1228Z" fill="#283519" fill-rule="evenodd"/><path d="M2005 916C2012.24 902.613 2035.33 865.466 2061.87 880.384 2070.37 885.16 2079.21 895.267 2088 913.192 2082.45 895.038 2073.48 878.457 2061.87 864.158 2052.75 852.911 2041.99 843.08 2029.99 835 2041.46 852.763 2022.42 882.299 2005 916" fill="#D8F254" fill-rule="evenodd"/><path d="M2085 1009.8C2038.51 1072.39 2034.7 965 2034.7 965 2029.42 990.945 2027.05 1023.39 2046.98 1064 2063.55 1049.15 2076.64 1030.62 2085 1009.8" fill="#768529" fill-rule="evenodd"/><path d="M2310 903.026C2239.04 917.748 2280.29 821 2280.29 821 2279.11 822.871 2277.97 824.777 2276.87 826.721 2254.41 866.262 2252.65 911.794 2268.14 951 2288.58 935.402 2301.44 918.978 2310 903.026" fill="#768529" fill-rule="evenodd"/><path d="M2298 798.168C2298 798.168 2370.09 766.543 2372.03 860 2372.95 839.026 2371.41 817.704 2371.49 799.466 2371.52 793.741 2371.71 788.323 2372.19 783.312 2373.53 769.135 2377.18 758.232 2386 753 2369.76 755.112 2353.95 759.946 2339.28 767.294 2334.46 769.71 2329.76 772.392 2325.22 775.345 2315.37 781.734 2306.21 789.368 2298 798.168" fill="#D8F254" fill-rule="evenodd"/><path d="M2503.59 956C2571.36 1305.53 2240 1211.52 2240 1211.52 2260.97 1279.11 2276.02 1345.24 2256.14 1413 2323.74 1400.34 2384.19 1367.39 2430.89 1320.73 2491.51 1260.17 2529 1176.51 2529 1084.09 2529 1038.72 2519.96 995.457 2503.59 956" fill="#A1BA3A" fill-rule="evenodd"/><path d="M2209.98 1289.87C1799.82 1280.58 1931.89 891 1931.89 891 1893.53 945.527 1871 1012.02 1871 1083.78 1871 1176.37 1908.5 1260.19 1969.13 1320.86 2028.52 1380.29 2110.12 1417.51 2200.39 1419 2200.75 1419 2201.12 1418.99 2201.48 1418.98 2216.21 1376.47 2216.38 1333.6 2209.98 1289.87" fill="#A1BA3A" fill-rule="evenodd"/></g></svg>